<mxfile host="65bd71144e">
    <diagram id="KUi-qUF_6K0J3krlbkUL" name="Página-1">
        <mxGraphModel dx="2519" dy="1684" grid="1" gridSize="10" guides="1" tooltips="1" connect="1" arrows="1" fold="1" page="1" pageScale="1" pageWidth="827" pageHeight="1169" background="none" math="0" shadow="0">
            <root>
                <mxCell id="0"/>
                <mxCell id="1" parent="0"/>
                <mxCell id="2" value="Se debe modelar la información de una casa de electrodomésticos. La misma registra información sobre sus empleados y clientes. &lt;br&gt;&lt;br&gt;De cada &lt;b&gt;&lt;font color=&quot;#ff8000&quot;&gt;empleado&lt;/font&gt;&lt;/b&gt; se registra &lt;b&gt;&lt;u&gt;D.N.I&lt;/u&gt;&lt;/b&gt;, &lt;b&gt;&lt;u&gt;C.U.I.L&lt;/u&gt;&lt;/b&gt;, &lt;b&gt;&lt;u&gt;nombre&lt;/u&gt;&lt;/b&gt;, &lt;b&gt;&lt;u&gt;apellido&lt;/u&gt;&lt;/b&gt;, &lt;b&gt;&lt;u&gt;fecha de nacimiento&lt;/u&gt;&lt;/b&gt;, &lt;b&gt;&lt;u&gt;fecha de ingreso&lt;/u&gt;&lt;/b&gt;, &lt;b&gt;&lt;u&gt;fecha de egreso&lt;/u&gt;&lt;/b&gt;, &lt;b&gt;&lt;u&gt;email/s&lt;/u&gt;&lt;/b&gt; y &lt;b&gt;&lt;u&gt;sueldo básico&lt;/u&gt;&lt;/b&gt;.&lt;br&gt;&lt;br&gt;De los &lt;b&gt;&lt;font color=&quot;#ff8000&quot;&gt;clientes&lt;/font&gt;&lt;/b&gt; se registra: &lt;b&gt;&lt;u&gt;D.N.I&lt;/u&gt;&lt;/b&gt;, &lt;b&gt;&lt;u&gt;nombre&lt;/u&gt;&lt;/b&gt;, &lt;b&gt;&lt;u&gt;apellido&lt;/u&gt;&lt;/b&gt; y, opcionalmente, &lt;b&gt;teléfono&lt;/b&gt; y &lt;b&gt;dirección de mail&lt;/b&gt;. &lt;br&gt;&lt;br&gt;También se dispone de información sobre los &lt;b&gt;&lt;font color=&quot;#ff8000&quot;&gt;electrodomésticos&lt;/font&gt;&lt;/b&gt; a la venta. De cada uno se registra un &lt;b&gt;&lt;u&gt;código interno único&lt;/u&gt;&lt;/b&gt;, &lt;b&gt;&lt;u&gt;nombre&lt;/u&gt;&lt;/b&gt;, &lt;b&gt;&lt;u&gt;modelo&lt;/u&gt;&lt;/b&gt;, &lt;b&gt;&lt;u&gt;stock&lt;/u&gt;&lt;/b&gt;, &lt;b&gt;&lt;u&gt;precio regular&lt;/u&gt;&lt;/b&gt; y &lt;b&gt;&lt;u&gt;precio online&lt;/u&gt;&lt;/b&gt; (si está disponible). &lt;br&gt;&lt;br&gt;Cada electrodoméstico pertenece a una &lt;b&gt;&lt;font color=&quot;#ff8000&quot;&gt;categoría&lt;/font&gt;&lt;/b&gt; (climatización, lavado, cocina, etc. El &lt;b&gt;&lt;u&gt;nombre de la categoría&lt;/u&gt;&lt;/b&gt; es único). &lt;br&gt;&lt;br&gt;Es importante registrarlas &lt;font style=&quot;&quot; color=&quot;#ffffff&quot;&gt;ventas&lt;/font&gt; realizadas. De cada &lt;font color=&quot;#ff8000&quot;&gt;&lt;b&gt;venta&lt;/b&gt;&lt;/font&gt; se registra: &lt;b&gt;&lt;u&gt;código de venta&lt;/u&gt;&lt;/b&gt; (único), &lt;b&gt;&lt;u&gt;fecha&lt;/u&gt;&lt;/b&gt;, &lt;b&gt;&lt;u&gt;cliente&lt;/u&gt;&lt;/b&gt;, &lt;b&gt;&lt;u&gt;electrodomésticos incluidos&lt;/u&gt;&lt;/b&gt;, &lt;b&gt;&lt;u&gt;precio total&lt;/u&gt;&lt;/b&gt; y el &lt;b&gt;&lt;u&gt;empleado&lt;/u&gt;&lt;/b&gt; que realizó dicha venta. &lt;br&gt;&lt;br&gt;&lt;b&gt;Nota: tenga encuenta que se podrían pedir estadísticas sobre mejor o peor cliente, tipos de electrodomésticos más vendidos, promedios de ventas por clientes entre otros, discuta la mejor solución.&lt;/b&gt;" style="text;whiteSpace=wrap;html=1;fillColor=default;verticalAlign=middle;" parent="1" vertex="1">
                    <mxGeometry x="40" y="120" width="760" height="280" as="geometry"/>
                </mxCell>
                <mxCell id="3" value="&lt;font style=&quot;font-size: 42px;&quot;&gt;CASA DE ELECTRODOMÉSTICOS&lt;/font&gt;" style="text;html=1;strokeColor=none;fillColor=none;align=left;verticalAlign=middle;whiteSpace=wrap;rounded=0;labelBackgroundColor=none;" parent="1" vertex="1">
                    <mxGeometry x="40" y="40" width="760" height="80" as="geometry"/>
                </mxCell>
                <mxCell id="8" value="PERSONAS" style="rounded=0;fontSize=12;fontColor=default;fillColor=default;labelBackgroundColor=none;whiteSpace=wrap;labelBorderColor=none;" parent="1" vertex="1">
                    <mxGeometry x="360" y="440" width="160" height="80" as="geometry"/>
                </mxCell>
                <mxCell id="24" value="" style="edgeStyle=none;entryX=0.5;entryY=1;entryDx=0;entryDy=0;fontSize=12;fontColor=default;endArrow=block;endFill=1;labelBackgroundColor=none;labelBorderColor=none;" parent="1" source="9" target="8" edge="1">
                    <mxGeometry relative="1" as="geometry">
                        <Array as="points">
                            <mxPoint x="200" y="560"/>
                            <mxPoint x="440" y="560"/>
                        </Array>
                    </mxGeometry>
                </mxCell>
                <mxCell id="35" value="" style="edgeStyle=none;fontSize=12;fontColor=default;endArrow=none;endFill=0;startArrow=none;labelBackgroundColor=none;labelBorderColor=none;" parent="1" source="47" target="30" edge="1">
                    <mxGeometry relative="1" as="geometry"/>
                </mxCell>
                <mxCell id="9" value="EMPLEADOS" style="rounded=0;fontSize=12;fontColor=default;fillColor=default;labelBackgroundColor=none;whiteSpace=wrap;labelBorderColor=none;" parent="1" vertex="1">
                    <mxGeometry x="120" y="600" width="160" height="80" as="geometry"/>
                </mxCell>
                <mxCell id="25" value="" style="edgeStyle=none;entryX=0.5;entryY=1;entryDx=0;entryDy=0;fontSize=12;fontColor=default;endArrow=block;endFill=1;labelBackgroundColor=none;labelBorderColor=none;" parent="1" source="10" target="8" edge="1">
                    <mxGeometry relative="1" as="geometry">
                        <Array as="points">
                            <mxPoint x="680" y="560"/>
                            <mxPoint x="440" y="560"/>
                        </Array>
                    </mxGeometry>
                </mxCell>
                <mxCell id="32" value="" style="edgeStyle=none;fontSize=12;fontColor=default;endArrow=none;endFill=0;startArrow=none;labelBackgroundColor=none;labelBorderColor=none;" parent="1" source="52" target="31" edge="1">
                    <mxGeometry relative="1" as="geometry"/>
                </mxCell>
                <mxCell id="10" value="CLIENTES" style="rounded=0;fontSize=12;fontColor=default;fillColor=default;labelBackgroundColor=none;whiteSpace=wrap;labelBorderColor=none;" parent="1" vertex="1">
                    <mxGeometry x="600" y="600" width="160" height="80" as="geometry"/>
                </mxCell>
                <mxCell id="11" value="" style="labelBorderColor=none;strokeWidth=1;endArrow=oval;endFill=1;endSize=6;targetPerimeterSpacing=0;align=left;fontSize=12;fontColor=default;exitX=0;exitY=0.25;exitDx=0;exitDy=0;labelBackgroundColor=none;" parent="1" source="8" target="12" edge="1">
                    <mxGeometry relative="1" as="geometry">
                        <mxPoint x="60" y="480" as="sourcePoint"/>
                    </mxGeometry>
                </mxCell>
                <mxCell id="12" value="DNI" style="text;strokeColor=none;fillColor=none;align=left;verticalAlign=middle;rounded=0;container=0;spacingLeft=8;fontSize=12;fontColor=default;labelBackgroundColor=none;whiteSpace=wrap;labelBorderColor=none;" parent="1" vertex="1">
                    <mxGeometry x="300" y="450" width="40" height="20" as="geometry"/>
                </mxCell>
                <mxCell id="13" value="" style="labelBorderColor=none;strokeWidth=1;endArrow=oval;endFill=0;endSize=6;targetPerimeterSpacing=0;align=left;fontSize=12;fontColor=default;exitX=0;exitY=0.5;exitDx=0;exitDy=0;labelBackgroundColor=none;" parent="1" source="8" target="14" edge="1">
                    <mxGeometry relative="1" as="geometry">
                        <mxPoint x="150" y="470" as="sourcePoint"/>
                    </mxGeometry>
                </mxCell>
                <mxCell id="14" value="Nombre" style="text;strokeColor=none;fillColor=none;align=left;verticalAlign=middle;rounded=0;container=0;spacingLeft=8;fontSize=12;fontColor=default;labelBackgroundColor=none;whiteSpace=wrap;labelBorderColor=none;" parent="1" vertex="1">
                    <mxGeometry x="280" y="470" width="60" height="20" as="geometry"/>
                </mxCell>
                <mxCell id="15" value="" style="labelBorderColor=none;strokeWidth=1;endArrow=oval;endFill=0;endSize=6;targetPerimeterSpacing=0;align=left;fontSize=12;fontColor=default;exitX=0;exitY=0.75;exitDx=0;exitDy=0;labelBackgroundColor=none;" parent="1" source="8" target="16" edge="1">
                    <mxGeometry relative="1" as="geometry">
                        <mxPoint x="150" y="535" as="sourcePoint"/>
                    </mxGeometry>
                </mxCell>
                <mxCell id="16" value="Apellido" style="text;strokeColor=none;fillColor=none;align=left;verticalAlign=middle;rounded=0;container=0;spacingLeft=8;fontSize=12;fontColor=default;labelBackgroundColor=none;whiteSpace=wrap;labelBorderColor=none;" parent="1" vertex="1">
                    <mxGeometry x="280" y="490" width="60" height="20" as="geometry"/>
                </mxCell>
                <mxCell id="27" value="ELECTRODOMÉSTICOS" style="rounded=0;fontSize=12;fontColor=default;fillColor=default;labelBackgroundColor=none;whiteSpace=wrap;labelBorderColor=none;" parent="1" vertex="1">
                    <mxGeometry x="360" y="1080" width="160" height="80" as="geometry"/>
                </mxCell>
                <mxCell id="33" value="" style="edgeStyle=none;fontSize=12;fontColor=default;endArrow=none;endFill=0;startArrow=none;labelBackgroundColor=none;labelBorderColor=none;" parent="1" source="51" target="31" edge="1">
                    <mxGeometry relative="1" as="geometry"/>
                </mxCell>
                <mxCell id="34" value="" style="edgeStyle=none;fontSize=12;fontColor=default;endArrow=none;endFill=0;startArrow=none;labelBackgroundColor=none;labelBorderColor=none;" parent="1" source="48" target="30" edge="1">
                    <mxGeometry relative="1" as="geometry"/>
                </mxCell>
                <mxCell id="40" value="" style="edgeStyle=none;fontSize=12;fontColor=default;endArrow=none;endFill=0;startArrow=none;labelBackgroundColor=none;labelBorderColor=none;" parent="1" source="43" target="39" edge="1">
                    <mxGeometry relative="1" as="geometry"/>
                </mxCell>
                <mxCell id="29" value="VENTAS" style="rounded=0;fontSize=12;fontColor=default;fillColor=default;labelBackgroundColor=none;whiteSpace=wrap;labelBorderColor=none;" parent="1" vertex="1">
                    <mxGeometry x="360" y="760" width="160" height="80" as="geometry"/>
                </mxCell>
                <mxCell id="30" value="realizan" style="rhombus;fontSize=12;fontColor=default;fillColor=default;labelBackgroundColor=none;whiteSpace=wrap;labelBorderColor=none;" parent="1" vertex="1">
                    <mxGeometry x="120" y="760" width="160" height="80" as="geometry"/>
                </mxCell>
                <mxCell id="31" value="reciben" style="rhombus;fontSize=12;fontColor=default;fillColor=default;labelBackgroundColor=none;whiteSpace=wrap;labelBorderColor=none;" parent="1" vertex="1">
                    <mxGeometry x="600" y="760" width="160" height="80" as="geometry"/>
                </mxCell>
                <mxCell id="37" value="" style="labelBorderColor=none;strokeWidth=1;endArrow=oval;endFill=1;endSize=6;targetPerimeterSpacing=0;align=left;fontSize=12;fontColor=default;exitX=0.812;exitY=-0.004;exitDx=0;exitDy=0;exitPerimeter=0;labelBackgroundColor=none;" parent="1" source="29" target="38" edge="1">
                    <mxGeometry relative="1" as="geometry">
                        <mxPoint x="360" y="660" as="sourcePoint"/>
                    </mxGeometry>
                </mxCell>
                <mxCell id="38" value="Código" style="text;strokeColor=none;fillColor=none;align=left;verticalAlign=middle;rounded=0;container=0;spacingLeft=8;fontSize=12;fontColor=default;labelBackgroundColor=none;whiteSpace=wrap;labelBorderColor=none;" parent="1" vertex="1">
                    <mxGeometry x="460" y="720" width="60" height="20" as="geometry"/>
                </mxCell>
                <mxCell id="41" value="" style="edgeStyle=none;fontSize=12;fontColor=default;endArrow=none;endFill=0;startArrow=none;labelBackgroundColor=none;labelBorderColor=none;" parent="1" source="44" target="27" edge="1">
                    <mxGeometry relative="1" as="geometry"/>
                </mxCell>
                <mxCell id="39" value="incluyen" style="rhombus;fontSize=12;fontColor=default;fillColor=default;labelBackgroundColor=none;whiteSpace=wrap;labelBorderColor=none;" parent="1" vertex="1">
                    <mxGeometry x="360" y="920" width="160" height="80" as="geometry"/>
                </mxCell>
                <mxCell id="42" value="" style="edgeStyle=none;fontSize=12;fontColor=default;endArrow=none;endFill=0;labelBackgroundColor=none;labelBorderColor=none;" parent="1" source="29" target="43" edge="1">
                    <mxGeometry relative="1" as="geometry">
                        <mxPoint x="440" y="840" as="sourcePoint"/>
                        <mxPoint x="440" y="920" as="targetPoint"/>
                    </mxGeometry>
                </mxCell>
                <mxCell id="43" value="(1, n)" style="text;strokeColor=none;fillColor=none;align=center;verticalAlign=middle;rounded=0;labelBackgroundColor=none;fontSize=12;fontColor=default;whiteSpace=wrap;labelBorderColor=none;" parent="1" vertex="1">
                    <mxGeometry x="420" y="870" width="40" height="20" as="geometry"/>
                </mxCell>
                <mxCell id="45" value="" style="edgeStyle=none;fontSize=12;fontColor=default;endArrow=none;endFill=0;labelBackgroundColor=none;labelBorderColor=none;" parent="1" source="39" target="44" edge="1">
                    <mxGeometry relative="1" as="geometry">
                        <mxPoint x="440" y="999.9999999999998" as="sourcePoint"/>
                        <mxPoint x="440" y="1080.0000000000002" as="targetPoint"/>
                    </mxGeometry>
                </mxCell>
                <mxCell id="44" value="(1, 1)" style="text;strokeColor=none;fillColor=none;align=center;verticalAlign=middle;rounded=0;labelBackgroundColor=none;fontSize=12;fontColor=default;whiteSpace=wrap;labelBorderColor=none;" parent="1" vertex="1">
                    <mxGeometry x="420" y="1030" width="40" height="20" as="geometry"/>
                </mxCell>
                <mxCell id="46" value="" style="edgeStyle=none;fontSize=12;fontColor=default;endArrow=none;endFill=0;labelBackgroundColor=none;labelBorderColor=none;" parent="1" source="9" target="47" edge="1">
                    <mxGeometry relative="1" as="geometry">
                        <mxPoint x="200" y="680" as="sourcePoint"/>
                        <mxPoint x="200" y="760" as="targetPoint"/>
                    </mxGeometry>
                </mxCell>
                <mxCell id="47" value="(0, n)" style="text;strokeColor=none;fillColor=none;align=center;verticalAlign=middle;rounded=0;labelBackgroundColor=none;fontSize=12;fontColor=default;whiteSpace=wrap;labelBorderColor=none;" parent="1" vertex="1">
                    <mxGeometry x="180" y="710" width="40" height="20" as="geometry"/>
                </mxCell>
                <mxCell id="49" value="" style="edgeStyle=none;fontSize=12;fontColor=default;endArrow=none;endFill=0;labelBackgroundColor=none;labelBorderColor=none;" parent="1" source="29" target="48" edge="1">
                    <mxGeometry relative="1" as="geometry">
                        <mxPoint x="360" y="800" as="sourcePoint"/>
                        <mxPoint x="280" y="800" as="targetPoint"/>
                    </mxGeometry>
                </mxCell>
                <mxCell id="48" value="(1, 1)" style="text;strokeColor=none;fillColor=none;align=center;verticalAlign=middle;rounded=0;labelBackgroundColor=none;fontSize=12;fontColor=default;whiteSpace=wrap;labelBorderColor=none;" parent="1" vertex="1">
                    <mxGeometry x="300" y="790" width="40" height="20" as="geometry"/>
                </mxCell>
                <mxCell id="50" value="" style="edgeStyle=none;fontSize=12;fontColor=default;endArrow=none;endFill=0;labelBackgroundColor=none;labelBorderColor=none;" parent="1" source="29" target="51" edge="1">
                    <mxGeometry relative="1" as="geometry">
                        <mxPoint x="520" y="800" as="sourcePoint"/>
                        <mxPoint x="600" y="800" as="targetPoint"/>
                    </mxGeometry>
                </mxCell>
                <mxCell id="51" value="(1, 1)" style="text;strokeColor=none;fillColor=none;align=center;verticalAlign=middle;rounded=0;labelBackgroundColor=none;fontSize=12;fontColor=default;whiteSpace=wrap;labelBorderColor=none;" parent="1" vertex="1">
                    <mxGeometry x="540" y="790" width="40" height="20" as="geometry"/>
                </mxCell>
                <mxCell id="53" value="" style="edgeStyle=none;fontSize=12;fontColor=default;endArrow=none;endFill=0;labelBackgroundColor=none;labelBorderColor=none;" parent="1" source="10" target="52" edge="1">
                    <mxGeometry relative="1" as="geometry">
                        <mxPoint x="680" y="680" as="sourcePoint"/>
                        <mxPoint x="680" y="760" as="targetPoint"/>
                    </mxGeometry>
                </mxCell>
                <mxCell id="52" value="(0, n)" style="text;strokeColor=none;fillColor=none;align=center;verticalAlign=middle;rounded=0;labelBackgroundColor=none;fontSize=12;fontColor=default;whiteSpace=wrap;labelBorderColor=none;" parent="1" vertex="1">
                    <mxGeometry x="660" y="710" width="40" height="20" as="geometry"/>
                </mxCell>
                <mxCell id="57" value="(T, S)" style="text;strokeColor=none;fillColor=none;align=center;verticalAlign=middle;rounded=0;labelBackgroundColor=none;fontSize=12;fontFamily=Helvetica;fontColor=default;whiteSpace=wrap;labelBorderColor=none;" parent="1" vertex="1">
                    <mxGeometry x="440" y="535" width="40" height="20" as="geometry"/>
                </mxCell>
                <mxCell id="58" value="" style="labelBorderColor=none;strokeWidth=1;endArrow=oval;endFill=0;endSize=6;targetPerimeterSpacing=0;align=left;fontSize=12;fontColor=default;exitX=0;exitY=0.25;exitDx=0;exitDy=0;labelBackgroundColor=none;" parent="1" source="9" target="59" edge="1">
                    <mxGeometry relative="1" as="geometry">
                        <mxPoint x="-140" y="585" as="sourcePoint"/>
                    </mxGeometry>
                </mxCell>
                <mxCell id="59" value="CUIL" style="text;strokeColor=none;fillColor=none;align=left;verticalAlign=middle;rounded=0;container=0;spacingLeft=8;fontSize=12;fontColor=default;labelBackgroundColor=none;whiteSpace=wrap;labelBorderColor=none;" parent="1" vertex="1">
                    <mxGeometry x="50" y="610" width="50" height="20" as="geometry"/>
                </mxCell>
                <mxCell id="60" value="" style="labelBorderColor=none;strokeWidth=1;endArrow=oval;endFill=0;endSize=6;targetPerimeterSpacing=0;align=left;fontSize=12;fontColor=default;exitX=0;exitY=0.5;exitDx=0;exitDy=0;labelBackgroundColor=none;" parent="1" source="9" target="61" edge="1">
                    <mxGeometry relative="1" as="geometry">
                        <mxPoint x="130" y="710.0000000000001" as="sourcePoint"/>
                    </mxGeometry>
                </mxCell>
                <mxCell id="61" value="email" style="text;strokeColor=none;fillColor=none;align=left;verticalAlign=middle;rounded=0;container=0;spacingLeft=8;fontSize=12;fontColor=default;labelBackgroundColor=none;whiteSpace=wrap;labelBorderColor=none;" parent="1" vertex="1">
                    <mxGeometry x="50" y="630" width="50" height="20" as="geometry"/>
                </mxCell>
                <mxCell id="62" value="1..n" style="text;strokeColor=none;fillColor=none;align=center;verticalAlign=middle;rounded=0;labelBackgroundColor=none;fontFamily=Helvetica;fontSize=12;container=0;fontColor=default;whiteSpace=wrap;labelBorderColor=none;" parent="1" vertex="1">
                    <mxGeometry x="20" y="630" width="40" height="20" as="geometry"/>
                </mxCell>
                <mxCell id="65" value="" style="edgeStyle=none;fontSize=12;fontColor=default;endArrow=none;endFill=0;startArrow=none;labelBackgroundColor=none;labelBorderColor=none;" parent="1" source="69" target="64" edge="1">
                    <mxGeometry relative="1" as="geometry"/>
                </mxCell>
                <mxCell id="66" value="" style="edgeStyle=none;fontSize=12;fontColor=default;endArrow=none;endFill=0;startArrow=none;labelBackgroundColor=none;labelBorderColor=none;" parent="1" source="68" target="27" edge="1">
                    <mxGeometry relative="1" as="geometry"/>
                </mxCell>
                <mxCell id="64" value="pertenecen" style="rhombus;fontSize=12;fontColor=default;fillColor=default;labelBackgroundColor=none;whiteSpace=wrap;labelBorderColor=none;" parent="1" vertex="1">
                    <mxGeometry x="120" y="1080" width="160" height="80" as="geometry"/>
                </mxCell>
                <mxCell id="67" value="" style="edgeStyle=none;fontSize=12;fontColor=default;endArrow=none;endFill=0;labelBackgroundColor=none;labelBorderColor=none;" parent="1" source="64" target="68" edge="1">
                    <mxGeometry relative="1" as="geometry">
                        <mxPoint x="280" y="1120" as="sourcePoint"/>
                        <mxPoint x="360.0000000000002" y="1120" as="targetPoint"/>
                    </mxGeometry>
                </mxCell>
                <mxCell id="68" value="(1, 1)" style="text;strokeColor=none;fillColor=none;align=center;verticalAlign=middle;rounded=0;labelBackgroundColor=none;fontSize=12;fontColor=default;whiteSpace=wrap;labelBorderColor=none;" parent="1" vertex="1">
                    <mxGeometry x="300" y="1110" width="40" height="20" as="geometry"/>
                </mxCell>
                <mxCell id="70" value="" style="edgeStyle=none;fontSize=12;fontColor=default;endArrow=none;endFill=0;labelBackgroundColor=none;labelBorderColor=none;" parent="1" source="63" target="69" edge="1">
                    <mxGeometry relative="1" as="geometry">
                        <mxPoint x="200" y="1000" as="sourcePoint"/>
                        <mxPoint x="200" y="1080" as="targetPoint"/>
                    </mxGeometry>
                </mxCell>
                <mxCell id="69" value="(0, n)" style="text;strokeColor=none;fillColor=none;align=center;verticalAlign=middle;rounded=0;labelBackgroundColor=none;fontSize=12;fontColor=default;whiteSpace=wrap;labelBorderColor=none;" parent="1" vertex="1">
                    <mxGeometry x="55" y="1109" width="40" height="20" as="geometry"/>
                </mxCell>
                <mxCell id="71" value="" style="labelBorderColor=none;strokeWidth=1;endArrow=oval;endFill=1;endSize=6;targetPerimeterSpacing=0;align=left;fontSize=12;fontColor=default;exitX=0;exitY=0.25;exitDx=0;exitDy=0;labelBackgroundColor=none;" parent="1" source="63" target="72" edge="1">
                    <mxGeometry relative="1" as="geometry">
                        <mxPoint x="-70" y="960" as="sourcePoint"/>
                    </mxGeometry>
                </mxCell>
                <mxCell id="72" value="Nombre" style="text;strokeColor=none;fillColor=none;align=left;verticalAlign=middle;rounded=0;container=0;spacingLeft=8;fontSize=12;fontColor=default;labelBackgroundColor=none;whiteSpace=wrap;labelBorderColor=none;" parent="1" vertex="1">
                    <mxGeometry x="-200" y="1090" width="60" height="20" as="geometry"/>
                </mxCell>
                <mxCell id="74" value="" style="labelBorderColor=none;strokeWidth=1;endArrow=oval;endFill=0;endSize=6;targetPerimeterSpacing=0;align=left;fontSize=12;fontColor=default;exitX=1;exitY=0.25;exitDx=0;exitDy=0;labelBackgroundColor=none;" parent="1" target="75" edge="1">
                    <mxGeometry relative="1" as="geometry">
                        <mxPoint x="520" y="1080" as="sourcePoint"/>
                    </mxGeometry>
                </mxCell>
                <mxCell id="75" value="Nombre" style="text;strokeColor=none;fillColor=none;align=left;verticalAlign=middle;rounded=0;container=0;spacingLeft=8;fontSize=12;fontColor=default;labelBackgroundColor=none;whiteSpace=wrap;labelBorderColor=none;" parent="1" vertex="1">
                    <mxGeometry x="540" y="1070" width="60" height="20" as="geometry"/>
                </mxCell>
                <mxCell id="80" value="" style="labelBorderColor=none;strokeWidth=1;endArrow=oval;endFill=0;endSize=6;targetPerimeterSpacing=0;align=left;fontSize=12;fontColor=default;exitX=1;exitY=0.5;exitDx=0;exitDy=0;labelBackgroundColor=none;" parent="1" target="81" edge="1">
                    <mxGeometry relative="1" as="geometry">
                        <mxPoint x="520" y="1100" as="sourcePoint"/>
                    </mxGeometry>
                </mxCell>
                <mxCell id="81" value="Modelo" style="text;strokeColor=none;fillColor=none;align=left;verticalAlign=middle;rounded=0;container=0;spacingLeft=8;fontSize=12;fontColor=default;labelBackgroundColor=none;whiteSpace=wrap;labelBorderColor=none;" parent="1" vertex="1">
                    <mxGeometry x="540" y="1090" width="60" height="20" as="geometry"/>
                </mxCell>
                <mxCell id="82" value="" style="labelBorderColor=none;strokeWidth=1;endArrow=oval;endFill=0;endSize=6;targetPerimeterSpacing=0;align=left;fontSize=12;fontColor=default;exitX=1;exitY=0.75;exitDx=0;exitDy=0;labelBackgroundColor=none;" parent="1" target="83" edge="1">
                    <mxGeometry relative="1" as="geometry">
                        <mxPoint x="520" y="1120" as="sourcePoint"/>
                    </mxGeometry>
                </mxCell>
                <mxCell id="83" value="Precio" style="text;strokeColor=none;fillColor=none;align=left;verticalAlign=middle;rounded=0;container=0;spacingLeft=8;fontSize=12;fontColor=default;labelBackgroundColor=none;whiteSpace=wrap;labelBorderColor=none;" parent="1" vertex="1">
                    <mxGeometry x="540" y="1110" width="50" height="20" as="geometry"/>
                </mxCell>
                <mxCell id="84" value="" style="labelBorderColor=none;strokeWidth=1;endArrow=oval;endFill=0;endSize=6;targetPerimeterSpacing=0;align=left;fontSize=12;fontColor=default;exitX=1;exitY=1;exitDx=0;exitDy=0;labelBackgroundColor=none;" parent="1" target="85" edge="1">
                    <mxGeometry relative="1" as="geometry">
                        <mxPoint x="520" y="1140" as="sourcePoint"/>
                    </mxGeometry>
                </mxCell>
                <mxCell id="85" value="Precio online" style="text;strokeColor=none;fillColor=none;align=left;verticalAlign=middle;rounded=0;container=0;spacingLeft=8;fontSize=12;fontColor=default;labelBackgroundColor=none;whiteSpace=wrap;labelBorderColor=none;" parent="1" vertex="1">
                    <mxGeometry x="540" y="1129" width="90" height="20" as="geometry"/>
                </mxCell>
                <mxCell id="86" value="0..1" style="text;strokeColor=none;fillColor=none;align=center;verticalAlign=middle;rounded=0;labelBackgroundColor=none;fontFamily=Helvetica;fontSize=12;container=0;fontColor=default;whiteSpace=wrap;labelBorderColor=none;" parent="1" vertex="1">
                    <mxGeometry x="620" y="1129" width="40" height="20" as="geometry"/>
                </mxCell>
                <mxCell id="87" value="" style="labelBorderColor=none;strokeWidth=1;endArrow=oval;endFill=0;endSize=6;targetPerimeterSpacing=0;align=left;fontSize=12;fontColor=default;exitX=1;exitY=0.25;exitDx=0;exitDy=0;labelBackgroundColor=none;" parent="1" source="10" target="88" edge="1">
                    <mxGeometry relative="1" as="geometry">
                        <mxPoint x="800" y="610" as="sourcePoint"/>
                    </mxGeometry>
                </mxCell>
                <mxCell id="88" value="Teléfono" style="text;strokeColor=none;fillColor=none;align=left;verticalAlign=middle;rounded=0;container=0;spacingLeft=8;fontSize=12;fontColor=default;labelBackgroundColor=none;whiteSpace=wrap;labelBorderColor=none;" parent="1" vertex="1">
                    <mxGeometry x="780" y="610" width="60" height="20" as="geometry"/>
                </mxCell>
                <mxCell id="89" value="" style="labelBorderColor=none;strokeWidth=1;endArrow=oval;endFill=0;endSize=6;targetPerimeterSpacing=0;align=left;fontSize=12;fontColor=default;exitX=1;exitY=0.5;exitDx=0;exitDy=0;labelBackgroundColor=none;" parent="1" source="10" target="90" edge="1">
                    <mxGeometry relative="1" as="geometry">
                        <mxPoint x="790" y="660" as="sourcePoint"/>
                    </mxGeometry>
                </mxCell>
                <mxCell id="90" value="email" style="text;strokeColor=none;fillColor=none;align=left;verticalAlign=middle;rounded=0;container=0;spacingLeft=8;fontSize=12;fontColor=default;labelBackgroundColor=none;whiteSpace=wrap;labelBorderColor=none;" parent="1" vertex="1">
                    <mxGeometry x="780" y="630" width="50" height="20" as="geometry"/>
                </mxCell>
                <mxCell id="93" value="" style="labelBorderColor=none;strokeWidth=1;endArrow=oval;endFill=0;endSize=6;targetPerimeterSpacing=0;align=left;fontSize=12;fontColor=default;exitX=0.126;exitY=-0.001;exitDx=0;exitDy=0;exitPerimeter=0;labelBackgroundColor=none;" parent="1" source="29" target="94" edge="1">
                    <mxGeometry relative="1" as="geometry">
                        <mxPoint x="274" y="730" as="sourcePoint"/>
                    </mxGeometry>
                </mxCell>
                <mxCell id="94" value="Precio total" style="text;strokeColor=none;fillColor=none;align=left;verticalAlign=middle;rounded=0;container=0;spacingLeft=8;fontSize=12;fontColor=default;labelBackgroundColor=none;whiteSpace=wrap;labelBorderColor=none;" parent="1" vertex="1">
                    <mxGeometry x="340" y="720" width="80" height="20" as="geometry"/>
                </mxCell>
                <mxCell id="95" value="0..1" style="text;strokeColor=none;fillColor=none;align=center;verticalAlign=middle;rounded=0;labelBackgroundColor=none;fontFamily=Helvetica;fontSize=12;container=0;fontColor=default;whiteSpace=wrap;labelBorderColor=none;" parent="1" vertex="1">
                    <mxGeometry x="830" y="610" width="40" height="20" as="geometry"/>
                </mxCell>
                <mxCell id="96" value="0..1" style="text;strokeColor=none;fillColor=none;align=center;verticalAlign=middle;rounded=0;labelBackgroundColor=none;fontFamily=Helvetica;fontSize=12;container=0;fontColor=default;whiteSpace=wrap;labelBorderColor=none;" parent="1" vertex="1">
                    <mxGeometry x="820" y="630" width="40" height="20" as="geometry"/>
                </mxCell>
                <mxCell id="97" value="" style="labelBorderColor=none;strokeWidth=1;endArrow=oval;endFill=0;endSize=6;targetPerimeterSpacing=0;align=left;fontSize=12;fontColor=default;exitX=1;exitY=1;exitDx=0;exitDy=0;labelBackgroundColor=none;" parent="1" source="27" target="98" edge="1">
                    <mxGeometry relative="1" as="geometry">
                        <mxPoint x="480" y="1159" as="sourcePoint"/>
                    </mxGeometry>
                </mxCell>
                <mxCell id="98" value="Stock" style="text;strokeColor=none;fillColor=none;align=left;verticalAlign=middle;rounded=0;container=0;spacingLeft=8;fontSize=12;fontColor=default;labelBackgroundColor=none;whiteSpace=wrap;labelBorderColor=none;" parent="1" vertex="1">
                    <mxGeometry x="540" y="1149" width="80" height="20" as="geometry"/>
                </mxCell>
                <mxCell id="99" value="" style="labelBorderColor=none;strokeWidth=1;endArrow=oval;endFill=0;endSize=6;targetPerimeterSpacing=0;align=left;fontSize=12;fontColor=default;exitX=0;exitY=0.75;exitDx=0;exitDy=0;labelBackgroundColor=none;" parent="1" source="9" target="100" edge="1">
                    <mxGeometry relative="1" as="geometry">
                        <mxPoint x="-30" y="710" as="sourcePoint"/>
                    </mxGeometry>
                </mxCell>
                <mxCell id="100" value="Fecha Ingreso" style="text;strokeColor=none;fillColor=none;align=left;verticalAlign=middle;rounded=0;container=0;spacingLeft=8;fontSize=12;fontColor=default;labelBackgroundColor=none;whiteSpace=wrap;labelBorderColor=none;" parent="1" vertex="1">
                    <mxGeometry y="650" width="100" height="20" as="geometry"/>
                </mxCell>
                <mxCell id="101" value="" style="labelBorderColor=none;strokeWidth=1;endArrow=oval;endFill=0;endSize=6;targetPerimeterSpacing=0;align=left;fontSize=12;fontColor=default;exitX=0;exitY=1;exitDx=0;exitDy=0;labelBackgroundColor=none;" parent="1" source="9" target="102" edge="1">
                    <mxGeometry relative="1" as="geometry">
                        <mxPoint x="10" y="700" as="sourcePoint"/>
                    </mxGeometry>
                </mxCell>
                <mxCell id="102" value="Fecha egreso" style="text;strokeColor=none;fillColor=none;align=left;verticalAlign=middle;rounded=0;container=0;spacingLeft=8;fontSize=12;fontColor=default;labelBackgroundColor=none;whiteSpace=wrap;labelBorderColor=none;" parent="1" vertex="1">
                    <mxGeometry x="10" y="670" width="90" height="20" as="geometry"/>
                </mxCell>
                <mxCell id="103" value="0..1" style="text;strokeColor=none;fillColor=none;align=center;verticalAlign=middle;rounded=0;labelBackgroundColor=none;fontFamily=Helvetica;fontSize=12;container=0;fontColor=default;whiteSpace=wrap;labelBorderColor=none;" parent="1" vertex="1">
                    <mxGeometry x="-20" y="670" width="40" height="20" as="geometry"/>
                </mxCell>
                <mxCell id="104" value="" style="labelBorderColor=none;strokeWidth=1;endArrow=oval;endFill=0;endSize=6;targetPerimeterSpacing=0;align=left;fontSize=12;fontColor=default;exitX=0.5;exitY=0;exitDx=0;exitDy=0;labelBackgroundColor=none;" parent="1" source="29" target="105" edge="1">
                    <mxGeometry relative="1" as="geometry">
                        <mxPoint x="370" y="730" as="sourcePoint"/>
                    </mxGeometry>
                </mxCell>
                <mxCell id="105" value="Fecha" style="text;strokeColor=none;fillColor=none;align=left;verticalAlign=middle;rounded=0;container=0;spacingLeft=8;fontSize=12;fontColor=default;labelBackgroundColor=none;whiteSpace=wrap;labelBorderColor=none;" parent="1" vertex="1">
                    <mxGeometry x="413" y="720" width="54" height="20" as="geometry"/>
                </mxCell>
                <mxCell id="63" value="CATEGORÍAS" style="rounded=0;whiteSpace=wrap;shadow=0;glass=0;labelBackgroundColor=none;labelBorderColor=none;sketch=0;pointerEvents=1;strokeColor=default;strokeWidth=1;fontSize=12;fillColor=default;gradientColor=none;fontColor=default;" parent="1" vertex="1">
                    <mxGeometry x="-120" y="1079" width="160" height="80" as="geometry"/>
                </mxCell>
            </root>
        </mxGraphModel>
    </diagram>
</mxfile>